<svg width="229" height="83" viewBox="0 0 229 83" fill="none" xmlns="http://www.w3.org/2000/svg">
<path d="M118.813 59.1375L116.53 53.12H102.42L99.9301 59.1375H91.2151L105.118 25.73H113.625L127.528 59.1375H118.813ZM109.475 35.0675L105.325 46.065H113.833L109.475 35.0675Z" fill="#241F20"/>
<path d="M129.395 59.1375V23.4475H137.28V59.345H129.395V59.1375Z" fill="#241F20"/>
<path d="M160.727 58.1C158.652 59.345 156.37 59.9675 153.88 59.9675C147.655 59.9675 143.92 56.6475 143.92 50.0075V40.4625H139.355V34.2375H143.92V26.7675H151.805V34.2375H159.275V40.4625H151.805V49.1775C151.805 51.6675 153.05 52.9125 155.125 52.9125C156.37 52.9125 157.615 52.4975 158.86 51.875L160.727 58.1Z" fill="#241F20"/>
<path d="M171.725 26.7675C171.725 29.2575 169.443 31.3325 166.953 31.125C164.463 31.125 162.595 29.05 162.595 26.7675C162.595 24.2775 164.67 22.2025 167.368 22.2025C169.65 22.41 171.725 24.485 171.725 26.7675ZM163.01 59.1375V34.2375H170.895V59.1375H163.01Z" fill="#241F20"/>
<path d="M192.475 34.2375V40.4625H185.628V59.1375H177.743V40.4625H174.215V34.2375H177.743V32.37C177.743 26.56 181.685 22.825 187.703 22.825C189.363 22.825 191.023 23.24 192.683 23.8625L191.023 30.0875C190.4 29.88 189.57 29.6725 188.948 29.6725C187.288 29.465 185.835 30.71 185.628 32.37C185.628 32.5775 185.628 32.5775 185.628 32.785V34.445H192.475V34.2375Z" fill="#241F20"/>
<path d="M206.377 67.645H197.662L201.605 58.3075L191.23 34.03H199.737L205.755 48.555L211.98 34.03H220.487L206.377 67.645Z" fill="#241F20"/>
<path d="M39.5476 10.375C22.3251 10.375 8.42261 24.2775 8.42261 41.5C8.42261 58.7225 22.3251 72.625 39.5476 72.625C56.7701 72.625 70.6726 58.7225 70.6726 41.5C70.6726 24.2775 56.7701 10.375 39.5476 10.375ZM51.3751 44.6125C51.3751 51.875 46.8101 56.44 39.7551 56.44C33.7376 56.855 28.3426 52.29 27.9276 46.065C27.9276 45.4425 27.9276 45.0275 27.9276 44.405V34.03L35.6051 31.955V44.405C35.6051 47.5175 37.2651 49.385 39.7551 49.385C42.0376 49.385 43.4901 47.5175 43.4901 44.405V29.6725L51.1676 27.5975V44.6125H51.3751Z" fill="#241F20"/>
</svg>
