<svg width="100" height="20" viewBox="0 0 100 20" fill="none" xmlns="http://www.w3.org/2000/svg">
<path d="M1.22113 14.7915L9.68563 9.5445H14.0911C14.2396 9.5445 14.3386 9.6435 14.3386 9.792C14.3386 9.9405 14.2891 9.99 14.1901 9.99L10.0321 12.465C9.78463 12.6135 9.68563 12.96 9.68563 13.2075V14.7915H14.9821V5.6835C14.9821 5.4855 14.8336 5.337 14.6356 5.337H9.58663L1.17163 10.584V14.7915H1.22113Z" fill="black"/>
<path d="M70.5706 14.7915H78.1936V12.762H72.9961V11.0295H77.1541V9H72.9961V7.416H78.1936V5.3865H70.5706V14.7915Z" fill="black"/>
<path d="M22.7536 5.337L19.1401 14.7915H21.6151L22.2586 13.0095H26.3176L26.9611 14.7915H29.5351L25.8721 5.337H22.7536ZM23.0011 11.0295L24.3376 7.317L25.6246 11.0295H23.0011Z" fill="black"/>
<path d="M39.8311 7.3665H42.9001V14.7915H45.3256V7.3665H48.3451V5.337H39.8311V7.3665Z" fill="black"/>
<path d="M36.366 11.1285C36.366 12.366 35.6235 12.861 34.3365 12.861C33.099 12.861 32.2575 12.366 32.2575 11.1285V5.2875H29.832V11.4255C29.832 14.148 32.2575 14.9895 34.287 14.9895C36.3165 14.9895 38.742 14.148 38.742 11.4255V5.2875H36.3165L36.366 11.1285Z" fill="black"/>
<path d="M98.0926 5.337H95.2216L91.8061 9.198V5.337H89.3806V14.7915H91.7566V11.178L95.0236 14.7915H98.0926L93.6871 10.1385L98.0926 5.337Z" fill="black"/>
<path d="M64.9277 5.337H60.5222V14.7915H64.9277C68.2937 14.7915 69.2342 13.5045 69.2342 9.99C69.2342 6.6735 68.3432 5.337 64.9277 5.337ZM64.8287 12.762H62.8982V7.3665H64.8287C66.3632 7.3665 66.8087 7.7625 66.8087 9.99C66.7592 12.0195 66.2642 12.762 64.8287 12.762Z" fill="black"/>
<path d="M85.4702 9.2475L83.2922 9C82.0052 8.8515 81.7082 8.5545 81.7082 8.109C81.7082 7.614 82.3517 7.1685 83.6387 7.1685C84.8762 7.1685 85.5197 7.614 85.6682 8.307H88.0442C87.9452 6.327 86.2622 5.0895 83.7872 5.0895C80.8667 5.0895 79.4312 6.228 79.4312 8.307C79.4312 9.99 80.4212 10.7325 82.4012 10.98L84.6287 11.2275C85.4702 11.3265 85.8662 11.673 85.8662 12.069C85.8662 12.564 85.3217 13.0095 83.9357 13.0095C82.3517 13.0095 81.7082 12.6135 81.6092 11.8215H79.2827C79.3817 13.9995 80.8172 15.0885 83.8367 15.0885C86.6087 15.0885 88.1432 13.851 88.1432 12.0195C88.1432 10.386 87.2027 9.4455 85.4702 9.2475Z" fill="black"/>
<path d="M53.9387 5.0895C50.5232 5.0895 48.7412 7.218 48.7412 10.0395C48.7412 12.9105 50.5232 15.039 53.9387 15.039C57.4037 15.039 59.1857 12.9105 59.1857 10.0395C59.1857 7.1685 57.4037 5.0895 53.9387 5.0895ZM53.9387 12.9105C52.1567 12.9105 51.1667 11.8215 51.1667 10.0395C51.1667 8.307 52.1567 7.218 53.9387 7.218C55.7207 7.218 56.7107 8.307 56.7107 10.0395C56.7107 11.8215 55.7702 12.9105 53.9387 12.9105Z" fill="black"/>
</svg>
