<svg width="25" height="24" viewBox="0 0 25 24" fill="none" xmlns="http://www.w3.org/2000/svg">
<g clip-path="url(#clip0_137_8822)">
<path d="M14.7394 23.9998C17.7215 23.5267 20.4157 21.9469 22.2845 19.5754C24.1534 17.2039 25.0595 14.2151 24.8223 11.205C24.585 8.195 23.2218 5.38502 21.0045 3.3356C18.7872 1.28618 15.8788 0.147949 12.8594 0.147949C9.84002 0.147949 6.93162 1.28618 4.71431 3.3356C2.49699 5.38502 1.13375 8.195 0.8965 11.205C0.659249 14.2151 1.56543 17.2039 3.43428 19.5754C5.30314 21.9469 7.99731 23.5267 10.9794 23.9998V15.5598H7.9794V12.0698H10.9794V9.40977C10.9794 6.40977 12.7794 4.71977 15.5194 4.71977C16.4183 4.74857 17.314 4.84214 18.1994 4.99977V7.99977H16.6894C16.4307 7.96715 16.1681 7.99307 15.9208 8.07561C15.6735 8.15815 15.4479 8.29521 15.2607 8.47666C15.0735 8.6581 14.9294 8.87929 14.8392 9.12388C14.749 9.36848 14.7149 9.63022 14.7394 9.88977V12.1498H18.0594L17.5294 15.6398H14.7394V23.9998Z" fill="white"/>
</g>
<defs>
<clipPath id="clip0_137_8822">
<rect width="24" height="24" fill="white" transform="translate(0.859375)"/>
</clipPath>
</defs>
</svg>
