<svg width="25" height="24" viewBox="0 0 25 24" fill="none" xmlns="http://www.w3.org/2000/svg">
<g clip-path="url(#clip0_137_8830)">
<path fill-rule="evenodd" clip-rule="evenodd" d="M20.7078 20.4498H17.1478V14.8798C17.1478 13.5498 17.1478 11.8798 15.2978 11.8798C13.4478 11.8798 13.1678 13.3298 13.1678 14.8298V20.4898H9.60781V8.99977H13.0278V10.5598C13.3703 9.97599 13.8644 9.49578 14.4577 9.17007C15.051 8.84437 15.7214 8.68531 16.3978 8.70977C20.0078 8.70977 20.6678 11.0798 20.6678 14.1698L20.7078 20.4498ZM5.59781 7.42977C5.18756 7.43175 4.78597 7.31177 4.44403 7.08508C4.1021 6.85839 3.83523 6.5352 3.67732 6.15656C3.51941 5.77791 3.47757 5.36087 3.55713 4.9584C3.63668 4.55593 3.83403 4.18618 4.12413 3.89608C4.41422 3.60599 4.78398 3.40864 5.18645 3.32908C5.58892 3.24953 6.00595 3.29137 6.3846 3.44928C6.76325 3.60719 7.08643 3.87406 7.31312 4.21599C7.53982 4.55793 7.65979 4.95952 7.65781 5.36977C7.65518 5.91531 7.4373 6.43775 7.05155 6.82351C6.66579 7.20926 6.14335 7.42714 5.59781 7.42977ZM3.81781 20.4298H7.37781V8.99977H3.81781V20.4298ZM22.4778 -0.000229188H2.02781C1.798 -0.00287068 1.56991 0.0397834 1.35658 0.125297C1.14325 0.210811 0.948847 0.33751 0.784485 0.498158C0.620122 0.658806 0.489014 0.850258 0.398647 1.06158C0.30828 1.2729 0.260424 1.49995 0.257812 1.72977L0.257813 22.2698C0.260424 22.4996 0.30828 22.7266 0.398647 22.938C0.489014 23.1493 0.620122 23.3407 0.784485 23.5014C0.948847 23.662 1.14325 23.7887 1.35658 23.8742C1.56991 23.9598 1.798 24.0024 2.02781 23.9998H22.4778C22.9429 24.0051 23.3912 23.8262 23.7247 23.502C24.0583 23.1778 24.2499 22.7348 24.2578 22.2698V1.72977C24.2552 1.4991 24.207 1.27122 24.116 1.05924C24.025 0.847255 23.893 0.655355 23.7276 0.494575C23.5622 0.333795 23.3666 0.207309 23.1521 0.122391C22.9376 0.0374741 22.7085 -0.00419848 22.4778 -0.000229188Z" fill="white"/>
</g>
<defs>
<clipPath id="clip0_137_8830">
<rect width="24" height="24" fill="white" transform="translate(0.257812)"/>
</clipPath>
</defs>
</svg>
