<svg width="21" height="21" viewBox="0 0 21 21" fill="none" xmlns="http://www.w3.org/2000/svg">
<g clip-path="url(#clip0_59_922)">
<path fill-rule="evenodd" clip-rule="evenodd" d="M14.3167 11.03C14.3167 13.3867 12.8334 14.8467 10.6084 14.8467C8.32173 14.8467 6.8034 13.3867 6.8034 11.03V7.665L9.29173 6.99833V11.03C9.29173 12.06 9.8184 12.6333 10.6084 12.6333C11.3384 12.6333 11.8284 12.06 11.8284 11.03V6.32167L14.3167 5.655V11.03ZM10.5601 0.0299988C8.58225 0.0299988 6.64885 0.616489 5.00436 1.7153C3.35987 2.81412 2.07814 4.3759 1.32127 6.20316C0.564391 8.03043 0.366358 10.0411 0.75221 11.9809C1.13806 13.9207 2.09047 15.7025 3.489 17.1011C4.88752 18.4996 6.66935 19.452 8.60916 19.8379C10.549 20.2237 12.5596 20.0257 14.3869 19.2688C16.2142 18.5119 17.7759 17.2302 18.8748 15.5857C19.9736 13.9412 20.5601 12.0078 20.5601 10.03C20.5601 7.37783 19.5065 4.83429 17.6311 2.95893C15.7558 1.08357 13.2122 0.0299988 10.5601 0.0299988Z" fill="#241F20"/>
</g>
<defs>
<clipPath id="clip0_59_922">
<rect width="20" height="20" fill="white" transform="translate(0.560059 0.0299988)"/>
</clipPath>
</defs>
</svg>
