<svg width="31" height="24" viewBox="0 0 31 24" fill="none" xmlns="http://www.w3.org/2000/svg">
<g clip-path="url(#clip0_137_8826)">
<path d="M9.48859 24.0001C11.7798 24.0426 14.0566 23.6281 16.1859 22.7809C18.3152 21.9337 20.2543 20.6707 21.89 19.0657C23.5257 17.4607 24.8253 15.5459 25.7127 13.433C26.6001 11.3202 27.0577 9.05173 27.0586 6.76009C27.0586 6.50008 27.0586 6.23008 27.0586 5.97008C28.2331 5.10931 29.2484 4.05007 30.0586 2.84008C28.935 3.34799 27.7418 3.68505 26.5186 3.84008C27.8089 3.07808 28.7735 1.86781 29.2286 0.440085C28.0176 1.14732 26.6956 1.64434 25.3186 1.91008C24.3838 0.935003 23.1566 0.291292 21.823 0.0765469C20.4894 -0.138199 19.1222 0.0877318 17.9286 0.720085C16.735 1.33242 15.7811 2.3271 15.2191 3.54522C14.6572 4.76334 14.5197 6.13464 14.8286 7.44008C12.3916 7.32207 10.0058 6.69836 7.82288 5.60861C5.63994 4.51886 3.70757 2.98689 2.14859 1.11008C1.36081 2.44427 1.11968 4.03148 1.4757 5.53942C1.83171 7.04737 2.75727 8.35913 4.05859 9.20008C3.07829 9.17177 2.11868 8.9113 1.25859 8.44008V8.51009C1.26605 9.91927 1.76278 11.2821 2.66386 12.3656C3.56493 13.449 4.81438 14.1859 6.19859 14.4501C5.29212 14.6962 4.34168 14.7338 3.41859 14.5601C3.82259 15.7712 4.5929 16.8268 5.62299 17.581C6.65308 18.3352 7.89206 18.7507 9.16859 18.7701C6.97836 20.4556 4.29231 21.3697 1.52859 21.3701C1.03739 21.365 0.546753 21.335 0.0585938 21.2801C2.88134 23.0605 6.15125 24.0037 9.48859 24.0001Z" fill="white"/>
</g>
<defs>
<clipPath id="clip0_137_8826">
<rect width="30" height="24" fill="white" transform="translate(0.0585938)"/>
</clipPath>
</defs>
</svg>
